<svg width="32" height="31" viewBox="0 0 32 31" fill="none" xmlns="http://www.w3.org/2000/svg">
<path d="M4.26599 7.74999H6.84932M6.84932 7.74999H27.516M6.84932 7.74999V25.8333C6.84932 26.5185 7.1215 27.1756 7.60597 27.66C8.09043 28.1445 8.74752 28.4167 9.43266 28.4167H22.3493C23.0345 28.4167 23.6915 28.1445 24.176 27.66C24.6605 27.1756 24.9327 26.5185 24.9327 25.8333V7.74999M10.7243 7.74999V5.16666C10.7243 4.48152 10.9965 3.82444 11.481 3.33997C11.9654 2.8555 12.6225 2.58333 13.3077 2.58333H18.4743C19.1595 2.58333 19.8165 2.8555 20.301 3.33997C20.7855 3.82444 21.0577 4.48152 21.0577 5.16666V7.74999M13.3077 14.2083V21.9583M18.4743 14.2083V21.9583" stroke="#39393A" stroke-width="2" stroke-linecap="round" stroke-linejoin="round"/>
</svg>
