<svg width="144" height="144" viewBox="0 0 144 144" fill="none" xmlns="http://www.w3.org/2000/svg">
<path d="M133.522 109.384C134.069 108.486 134.597 107.573 135.106 106.647C135.221 106.439 135.336 106.23 135.449 106.019C135.887 105.204 136.309 104.379 136.716 103.545C136.867 103.237 137.016 102.93 137.162 102.62C137.527 101.844 137.877 101.062 138.216 100.271C138.367 99.9172 138.516 99.5625 138.661 99.2064C138.98 98.4229 139.288 97.6331 139.58 96.8366C139.708 96.4915 139.831 96.1442 139.952 95.7971C140.246 94.9567 140.526 94.1096 140.79 93.2549C140.875 92.9782 140.957 92.7003 141.038 92.4221C141.318 91.4729 141.582 90.5181 141.824 89.5536C141.861 89.4043 141.895 89.2538 141.931 89.1042C143.619 82.1827 144.328 74.878 143.853 67.3324C143.342 59.2585 141.461 51.5329 138.457 44.3739C131.136 26.7817 117.026 12.7102 99.4052 5.445C92.3078 2.49609 84.6556 0.650526 76.6641 0.145964C67.5567 -0.428349 58.7938 0.709589 50.6429 3.23887C50.4592 3.29596 50.2736 3.34518 50.0914 3.40368C49.3036 3.65512 48.5268 3.93103 47.7511 4.2089C47.3227 4.3605 46.8933 4.50675 46.468 4.66706C45.8386 4.90668 45.2176 5.16487 44.5968 5.42081C44.0552 5.64271 43.5115 5.86237 42.9752 6.09862C42.4062 6.35006 41.8459 6.61725 41.2834 6.88303C40.7328 7.14346 40.1815 7.40165 39.6376 7.67643C39.0453 7.974 38.4642 8.28928 37.8809 8.60371C37.4064 8.86078 36.9297 9.11446 36.4594 9.38278C35.7783 9.77034 35.1092 10.1759 34.4412 10.5848C34.1062 10.7913 33.7701 10.9935 33.4371 11.2042C32.6131 11.7284 31.8045 12.2735 31.0038 12.8292C30.8586 12.9302 30.7127 13.0281 30.5675 13.1302C22.5308 18.7979 15.7136 26.0654 10.5664 34.4753C10.5479 34.5063 10.529 34.5347 10.5116 34.5656C9.9401 35.5016 9.39195 36.4508 8.86348 37.4133C8.76701 37.5879 8.67138 37.7626 8.57688 37.9384C8.11985 38.7855 7.68138 39.6433 7.25838 40.5126C7.12451 40.7883 6.99035 41.0653 6.85845 41.3432C6.48045 42.1473 6.11679 42.9581 5.76748 43.778C5.62685 44.1053 5.4896 44.4338 5.35432 44.7643C5.0247 45.5729 4.70717 46.3882 4.40538 47.2109C4.28895 47.5298 4.1756 47.8493 4.06367 48.1688C3.75935 49.0357 3.47023 49.9092 3.1991 50.7904C3.12204 51.0407 3.04863 51.2935 2.97495 51.545C2.68723 52.5175 2.41695 53.4974 2.16973 54.4863C2.13879 54.6114 2.10926 54.7355 2.07973 54.8598C0.384353 61.7988 -0.32974 69.1222 0.148103 76.6876C0.659135 84.7735 2.5466 92.5102 5.55907 99.6778C12.8584 117.188 26.8871 131.201 44.4081 138.48C51.5524 141.47 59.2595 143.343 67.3137 143.852C95.2303 145.615 119.979 131.454 133.396 109.589C133.438 109.52 133.481 109.453 133.522 109.384ZM32.6294 68.8894L43.9081 57.6284L65.5756 79.3133L65.5843 79.3221L65.6149 79.3538L102.321 42.667L113.493 53.8402L113.581 53.928L65.6149 101.875L32.7393 68.9991L32.6294 68.8894Z" fill="#829FD5"/>
</svg>
